<?xml version="1.0" encoding="UTF-8" standalone="no"?>
<!-- Created with Inkscape (http://www.inkscape.org/) -->

<svg class="page-default__header-logo-img" viewBox="0 0 97 19" xmlns="http://www.w3.org/2000/svg">
            <title>Enonic</title>
            <g fill="#000" fill-rule="evenodd">
                <path d="m0 9.54c0-5.274 3.801-9.54 8.537-9.54 4.518 0 8.105 3.878 8.463 8.842v.154c0 .503-.394.852-.86.852h-14.419c.178 4.15 3.193 7.291 6.815 7.291 2.331 0 4.482-1.319 5.665-3.452.252-.465.79-.542 1.149-.31.396.31.539.854.287 1.319-1.507 2.597-4.126 4.304-7.101 4.304-4.736 0-8.537-4.266-8.537-9.46m1.828-1.512h13.308c-.574-3.569-3.373-6.167-6.6-6.167-3.3 0-6.06 2.561-6.708 6.167"></path>
                <path d="m65.5 0c-4.146 0-7.501 3.497-7.501 7.733v10.336c0 .543.414.931.903.931.491 0 .905-.388.905-.931v-10.336c0-3.225 2.525-5.868 5.692-5.868 3.166 0 5.69 2.643 5.69 5.868v10.336c0 .543.414.931.905.931.489 0 .903-.388.903-.931v-10.336c0-4.236-3.353-7.733-7.499-7.733"></path>
                <path d="m27.534 0c-4.146 0-7.501 3.497-7.501 7.733v10.336c0 .543.414.931.903.931.491 0 .905-.388.905-.931v-10.336c0-3.225 2.525-5.868 5.692-5.868 3.166 0 5.69 2.643 5.69 5.868v10.336c0 .543.414.931.905.931.489 0 .903-.388.903-.931v-10.336c0-4.236-3.353-7.733-7.499-7.733"></path>
                <path d="m76 .931c0-.544.42-.931.918-.931.534 0 .954.388.954.931v17.14c0 .503-.42.929-.954.929-.498 0-.918-.426-.918-.929v-17.14"></path>
                <path d="m81 9.462c0-5.274 4.3-9.462 9.675-9.462 2.226 0 4.34.775 5.99 2.094.384.272.46.852.117 1.278-.309.349-.846.467-1.268.156-1.344-1.086-3.034-1.707-4.838-1.707-4.376 0-7.832 3.452-7.832 7.64 0 4.263 3.456 7.677 7.832 7.677 1.804 0 3.494-.621 4.838-1.668.422-.31.958-.193 1.268.156.344.426.267 1.01-.193 1.358-1.573 1.24-3.687 2.02-5.913 2.02-5.375 0-9.675-4.188-9.675-9.538"></path>
                <path d="m39.796 8c.62-3.514 3.43-6.186 6.704-6.186 3.273 0 6.081 2.672 6.701 6.186h1.799c-.643-4.468-4.172-8-8.5-8-4.295 0-7.853 3.532-8.5 8h1.796"></path>
                <path d="m53.2 11c-.594 3.508-3.412 6.162-6.704 6.162-3.294 0-6.114-2.654-6.706-6.162h-1.795c.617 4.458 4.186 7.996 8.501 7.996 4.346 0 7.888-3.538 8.499-7.996h-1.795"></path>
          </g>
</svg>
